<?xml version="1.0" encoding="UTF-8" standalone="no"?>
<!-- Created with Inkscape (http://www.inkscape.org/) -->

<svg
   width="40"
   height="40"
   viewBox="0 0 10.583333 10.583333"
   version="1.1"
   id="svg135"
   inkscape:version="1.2.1 (9c6d41e410, 2022-07-14)"
   sodipodi:docname="logo.svg"
   xml:space="preserve"
   xmlns:inkscape="http://www.inkscape.org/namespaces/inkscape"
   xmlns:sodipodi="http://sodipodi.sourceforge.net/DTD/sodipodi-0.dtd"
   xmlns="http://www.w3.org/2000/svg"
   xmlns:svg="http://www.w3.org/2000/svg"><sodipodi:namedview
     id="namedview137"
     pagecolor="#ffffff"
     bordercolor="#000000"
     borderopacity="0.25"
     inkscape:showpageshadow="2"
     inkscape:pageopacity="0.0"
     inkscape:pagecheckerboard="0"
     inkscape:deskcolor="#d1d1d1"
     inkscape:document-units="px"
     showgrid="false"
     inkscape:zoom="16"
     inkscape:cx="38.09375"
     inkscape:cy="18.75"
     inkscape:window-width="1600"
     inkscape:window-height="837"
     inkscape:window-x="-8"
     inkscape:window-y="-8"
     inkscape:window-maximized="1"
     inkscape:current-layer="layer1"
     showguides="true"><sodipodi:guide
       position="-3.4567554,5.2922317"
       orientation="0,-1"
       id="guide872"
       inkscape:locked="false" /></sodipodi:namedview><defs
     id="defs132" /><g
     inkscape:label="Layer 1"
     inkscape:groupmode="layer"
     id="layer1"
     transform="translate(-52.513241,-41.211868)"><path
       style="fill:#d1ab1a;stroke:none;stroke-width:0.02084"
       d="m 56.082264,46.515451 c 0.122333,0.460105 0.04987,0.876362 0.309765,1.312918 0.852417,1.43177 2.746043,0.676966 3.837391,0.02084 0.21413,-0.128733 0.421134,-0.273398 0.625198,-0.417529 0.283654,-0.200355 0.546363,-0.488029 0.85444,-0.645309 -0.09647,0.325604 -0.09956,0.704912 -0.15161,1.042 -0.09599,0.62174 -0.208734,1.249481 -0.381455,1.854757 -0.146256,0.512517 -0.375204,1.040707 -0.842373,1.333759 -0.176495,-0.424594 -0.169826,-0.804778 0.01796,-1.229559 0.04348,-0.09832 0.312161,-0.47932 0.235304,-0.567952 -0.123494,-0.1424 -0.38231,0.322165 -0.433639,0.401232 -0.260917,0.401899 -0.497345,0.968121 -0.462127,1.458799 0.0095,0.13208 -0.01067,0.403149 0.146192,0.463022 0.12596,0.04805 0.314914,-0.09276 0.412944,-0.157841 0.34805,-0.231032 0.655815,-0.539693 0.91371,-0.865985 0.727377,-0.920314 0.975728,-2.229336 1.179125,-3.357112 0.08463,-0.46913 0.199251,-0.959723 0.199564,-1.437959 -0.258061,0.07244 -0.515456,0.447663 -0.717396,0.6252 -0.525459,0.461896 -1.062839,0.905455 -1.658361,1.275239 -0.705684,0.438202 -1.588008,0.893432 -2.438279,0.632973 -0.598816,-0.183433 -0.833599,-0.746259 -0.833599,-1.324693 0,-0.139566 -0.03517,-0.396147 0.05956,-0.511955 0.08055,-0.09847 0.342714,-0.09869 0.46144,-0.1226 0.378412,-0.07617 0.758408,-0.187748 1.125359,-0.306661 1.440627,-0.466878 3.054516,-1.201842 4.040476,-2.395056 0.416279,-0.503746 0.838663,-1.496296 0.14836,-1.979982 -0.407109,-0.285256 -0.924857,-0.273472 -1.396279,-0.212209 -1.06882,0.138892 -2.095918,0.709337 -2.917597,1.387997 -0.257437,0.212627 -0.497159,0.442391 -0.730213,0.681343 -0.08215,0.08424 -0.184246,0.256748 -0.30295,0.287675 -0.1062,0.02765 -0.260082,-0.05031 -0.363116,-0.07469 -0.297241,-0.07036 -0.595398,-0.1264 -0.89612,-0.17964 -1.01624,-0.179953 -2.499866,-0.209358 -3.268258,0.613195 -0.617054,0.660565 -0.339664,1.568959 0.350661,2.030691 0.593037,0.396646 1.334072,0.427614 2.021479,0.427614 0.27244,0 0.592126,0.015 0.854438,-0.06252 m 0.9378,-0.37512 c 0.09879,-0.507621 0.358926,-1.000153 0.625262,-1.43796 0.0804,-0.13216 0.192374,-0.386414 0.337004,-0.45604 0.158612,-0.07636 0.592772,0.133751 0.746612,0.197188 0.06875,0.02836 0.213985,0.117494 0.256644,0.0057 0.03699,-0.09697 -0.0838,-0.14761 -0.152443,-0.176056 -0.210567,-0.08732 -0.425971,-0.177578 -0.64604,-0.23766 0.05575,-0.276463 0.426845,-0.56643 0.612904,-0.769142 0.604547,-0.658656 1.378501,-1.280104 2.242173,-1.54461 0.402254,-0.1232 0.937174,-0.139424 1.201216,0.25061 0.441767,0.652503 -0.186704,1.54877 -0.638536,2.000623 -0.915854,0.915896 -2.098566,1.522964 -3.334397,1.884433 -0.391667,0.114574 -0.840185,0.274464 -1.250399,0.282924 m 0.2084,-2.167357 c -0.09957,0.300304 -0.37985,0.598211 -0.54159,0.875279 -0.259895,0.445162 -0.444079,0.932589 -0.54209,1.437958 -0.741486,0.09984 -1.623913,0.180058 -2.313237,-0.185268 -0.668697,-0.354384 -0.918273,-1.1879 -0.366196,-1.770148 0.281641,-0.297032 0.684291,-0.447268 1.074755,-0.533377 0.877864,-0.193625 1.83048,-0.05152 2.688358,0.175556 z"
       id="path865" /></g></svg>
